<svg width="512" height="512" viewBox="0 0 512 512" fill="none" xmlns="http://www.w3.org/2000/svg">
<path d="M0 33.5238C0 15.0091 15.0091 0 33.5238 0H478.476C496.991 0 512 15.0091 512 33.5238V478.476C512 496.991 496.991 512 478.476 512H33.5238C15.0091 512 0 496.991 0 478.476V33.5238Z" fill="#D62246"/>
<path d="M446.476 122.274C446.476 228.109 361.197 313.905 256 313.905C256 208.07 341.279 122.274 446.476 122.274Z" fill="#3FC484"/>
<path d="M254.898 60.9524C298.473 104.791 298.473 175.867 254.898 219.706C211.324 175.867 211.324 104.791 254.898 60.9524Z" fill="#3FC484"/>
<path d="M65.5238 122.274C170.721 122.274 256 208.07 256 313.905C150.803 313.905 65.5238 228.109 65.5238 122.274Z" fill="#3FC484"/>
<path d="M65.5238 344.381C65.5238 335.965 72.3461 329.143 80.7619 329.143C89.1777 329.143 96 335.965 96 344.381V446.476C96 454.892 89.1777 461.714 80.7619 461.714C72.3461 461.714 65.5238 454.892 65.5238 446.476V344.381Z" fill="#D73354"/>
<path d="M313.905 344.381C313.905 335.965 320.727 329.143 329.143 329.143C337.559 329.143 344.381 335.965 344.381 344.381V446.476C344.381 454.892 337.559 461.714 329.143 461.714C320.727 461.714 313.905 454.892 313.905 446.476V344.381Z" fill="#D73354"/>
<path d="M114.286 400.762C114.286 392.346 121.108 385.524 129.524 385.524C137.94 385.524 144.762 392.346 144.762 400.762V446.476C144.762 454.892 137.94 461.714 129.524 461.714C121.108 461.714 114.286 454.892 114.286 446.476V400.762Z" fill="#D73354"/>
<path d="M164.571 400.762C164.571 392.346 171.394 385.524 179.81 385.524C188.225 385.524 195.048 392.346 195.048 400.762V446.476C195.048 454.892 188.225 461.714 179.81 461.714C171.394 461.714 164.571 454.892 164.571 446.476V400.762Z" fill="#D73354"/>
<path d="M213.333 400.762C213.333 392.346 220.156 385.524 228.571 385.524C236.987 385.524 243.81 392.346 243.81 400.762V446.476C243.81 454.892 236.987 461.714 228.571 461.714C220.156 461.714 213.333 454.892 213.333 446.476V400.762Z" fill="#D73354"/>
<path d="M263.619 400.762C263.619 392.346 270.441 385.524 278.857 385.524C287.273 385.524 294.095 392.346 294.095 400.762V446.476C294.095 454.892 287.273 461.714 278.857 461.714C270.441 461.714 263.619 454.892 263.619 446.476V400.762Z" fill="#D73354"/>
<path d="M362.667 400.762C362.667 392.346 369.489 385.524 377.905 385.524C386.321 385.524 393.143 392.346 393.143 400.762V446.476C393.143 454.892 386.321 461.714 377.905 461.714C369.489 461.714 362.667 454.892 362.667 446.476V400.762Z" fill="#D73354"/>
<path d="M412.952 400.762C412.952 392.346 419.775 385.524 428.19 385.524C436.606 385.524 443.429 392.346 443.429 400.762V446.476C443.429 454.892 436.606 461.714 428.19 461.714C419.775 461.714 412.952 454.892 412.952 446.476V400.762Z" fill="#D73354"/>
</svg>
